<svg width="733" height="948" viewBox="0 0 733 948" fill="none" xmlns="http://www.w3.org/2000/svg">
<path d="M4.62604 927.728C17.626 876.728 61.626 792.728 80.626 756.728C91.626 733.728 114.126 684.528 116.126 671.728C119.626 655.728 128.626 621.728 129.126 602.728C129.626 583.728 123.186 533.554 120.126 523.228C116.126 509.728 90.126 463.728 74.126 435.228C61.9594 412.561 37.626 354.028 37.626 301.228C37.626 250.028 53.9594 202.894 62.126 185.728C73.7927 161.561 106.726 106.428 145.126 79.2277C193.126 45.2277 214.126 27.7277 309.626 4.22768C355.126 -6.27232 438.626 8.22768 456.626 13.2277C474.626 18.2277 537.626 33.7277 593.626 96.7277C638.426 147.128 660.626 205.061 666.126 227.728C668.293 244.061 677.126 255.228 654.126 297.228C666.126 333.728 673.126 334.228 685.626 353.728C699.126 372.728 726.626 411.328 728.626 413.728C731.126 416.728 739.626 441.728 712.626 449.728C685.626 457.728 681.126 456.228 681.626 464.728C682.126 473.228 687.626 500.228 688.126 503.728C688.626 507.228 678.126 521.728 674.126 523.228C677.626 543.228 673.626 544.728 671.626 548.728C664.626 554.061 654.626 564.728 654.626 571.228C651.626 589.228 657.126 609.728 654.626 622.228C652.626 632.061 639.826 653.928 604.626 662.728C559.126 666.228 512.126 654.228 506.126 657.728C496.959 656.394 477.419 674.447 473.126 707.228C467.626 749.228 465.126 785.228 467.626 794.728C467.959 817.894 474.626 871.828 498.626 902.228C508.823 929.906 512.61 937.579 513.458 938.228H513.626C513.596 938.287 513.541 938.291 513.458 938.228H236.626L21.626 946.728L0.626038 941.228L4.62604 927.728Z" fill="#0A59B5"/>
<path d="M4.62604 927.728C17.626 876.728 61.626 792.728 80.626 756.728C91.626 733.728 114.126 684.528 116.126 671.728C119.626 655.728 128.626 621.728 129.126 602.728C129.626 583.728 123.186 533.554 120.126 523.228C116.126 509.728 90.126 463.728 74.126 435.228C61.9594 412.561 37.626 354.028 37.626 301.228C37.626 250.028 53.9594 202.894 62.126 185.728C73.7927 161.561 106.726 106.428 145.126 79.2277C193.126 45.2277 214.126 27.7277 309.626 4.22768C355.126 -6.27232 438.626 8.22768 456.626 13.2277C474.626 18.2277 537.626 33.7277 593.626 96.7277C638.426 147.128 660.626 205.061 666.126 227.728C668.293 244.061 677.126 255.228 654.126 297.228C666.126 333.728 673.126 334.228 685.626 353.728C699.126 372.728 726.626 411.328 728.626 413.728C731.126 416.728 739.626 441.728 712.626 449.728C685.626 457.728 681.126 456.228 681.626 464.728C682.126 473.228 687.626 500.228 688.126 503.728C688.626 507.228 678.126 521.728 674.126 523.228C677.626 543.228 673.626 544.728 671.626 548.728C664.626 554.061 654.626 564.728 654.626 571.228C651.626 589.228 657.126 609.728 654.626 622.228C652.626 632.061 639.826 653.928 604.626 662.728C559.126 666.228 512.126 654.228 506.126 657.728C496.959 656.394 477.419 674.447 473.126 707.228C467.626 749.228 465.126 785.228 467.626 794.728C467.959 817.894 474.626 871.828 498.626 902.228C509.826 932.628 513.293 938.894 513.626 938.228H236.626L21.626 946.728L0.626038 941.228L4.62604 927.728Z" stroke="black"/>
</svg>
